{"title":"Ilegales Ft. El Potro Alvarez - Ayantame (h264/mp4)","uid":7584907,"size":56619251,"categoryP":"video","categoryS":"music_videos","magnet":"?xt=urn:btih:7cfab510fe06eacfeba175df7e7b67475764f483&amp;dn=Ilegales+Ft.+El+Potro+Alvarez+-+Ayantame+%28h264%2Fmp4%29&amp;tr=udp%3A%2F%2Ftracker.openbittorrent.com%3A80&amp;tr=udp%3A%2F%2Fopen.demonii.com%3A1337&amp;tr=udp%3A%2F%2Ftracker.coppersurfer.tk%3A6969&amp;tr=udp%3A%2F%2Fexodus.desync.com%3A6969","seeders":0,"leechers":0,"uploader":"MusicVideos-HQ","files":1,"time":1346386261,"description":"General\n\nFormat                         : MPEG-4\nFormat profile                 : Base Media\nCodec ID                       : isom\nFile size                      : 54.0 MiB\nDuration                       : 3mn 32s\nOverall bit rate mode          : Variable\nOverall bit rate               : 2 128 Kbps\nEncoded date                   : UTC 2012-08-29 16:15:34\nTagged date                    : UTC 2012-08-29 16:15:34\n\nVideo\nID                             : 1\nFormat                         : AVC\nFormat/Info                    : Advanced Video Codec\nFormat profile                 : &lt;a class=&quot;__cf_email__&quot; href=&quot;/cdn-cgi/l/email-protection&quot; data-cfemail=&quot;90d8f9f7f8d0dca3bea0&quot;&gt;[email&amp;#160;protected]&lt;/a&gt;&lt;script data-cfhash='f9e31' type=&quot;text/javascript&quot;&gt;\n/* &lt;![CDATA[ */!function(){try{var t=&quot;currentScript&quot;in document?document.currentScript:function(){for(var t=document.getElementsByTagName(&quot;script&quot;),e=t.length;e--;)if(t[e].getAttribute(&quot;data-cfhash&quot;))return t[e]}();if(t&amp;&amp;t.previousSibling){var e,r,n,i,c=t.previousSibling,a=c.getAttribute(&quot;data-cfemail&quot;);if(a){for(e=&quot;&quot;,r=parseInt(a.substr(0,2),16),n=2;a.length-n;n+=2)i=parseInt(a.substr(n,2),16)^r,e+=String.fromCharCode(i);e=document.createTextNode(e),c.parentNode.replaceChild(e,c)}t.parentNode.removeChild(t);}}catch(u){}}()/* ]]&gt; */&lt;/script&gt;\nFormat settings, CABAC         : Yes\nFormat settings, ReFrames      : 2 frames\nCodec ID                       : avc1\nCodec ID/Info                  : Advanced Video Coding\nDuration                       : 3mn 32s\nBit rate                       : 1 919 Kbps\nMaximum bit rate               : 4 952 Kbps\nWidth                          : 720 pixels\nHeight                         : 480 pixels\nDisplay aspect ratio           : 16:9\nOriginal display aspect ratio  : 16:9\nFrame rate mode                : Constant\nFrame rate                     : 23.976 fps\nStandard                       : NTSC\nColor space                    : YUV\nChroma subsampling             : 4:2:0\nBit depth                      : 8 bits\nScan type                      : Progressive\nBits/(Pixel*Frame)             : 0.232\nStream size                    : 47.8 MiB (88%)\n\n\nAudio\nID                             : 2\nFormat                         : MPEG Audio\nFormat version                 : Version 1\nFormat profile                 : Layer 3\nMode                           : Joint stereo\nMode extension                 : MS Stereo\nCodec ID                       : 6B\nDuration                       : 3mn 32s\nBit rate mode                  : Variable\nBit rate                       : 239 Kbps\nMaximum bit rate               : 254 Kbps\nChannel(s)                     : 2 channels\nSampling rate                  : 44.1 KHz\nCompression mode               : Lossy\nDelay relative to video        : -833ms\nStream size                    : 6.06 MiB (11%)","torrent":{"xt":"urn:btih:7cfab510fe06eacfeba175df7e7b67475764f483","amp;dn":"Ilegales+Ft.+El+Potro+Alvarez+-+Ayantame+%28h264%2Fmp4%29","amp;tr":["udp%3A%2F%2Ftracker.openbittorrent.com%3A80","udp%3A%2F%2Fopen.demonii.com%3A1337","udp%3A%2F%2Ftracker.coppersurfer.tk%3A6969","udp%3A%2F%2Fexodus.desync.com%3A6969"],"infoHash":"7cfab510fe06eacfeba175df7e7b67475764f483","infoHashBuffer":{"type":"Buffer","data":[124,250,181,16,254,6,234,207,235,161,117,223,126,123,103,71,87,100,244,131]},"announce":[],"urlList":[]}}